<svg xmlns="http://www.w3.org/2000/svg" viewBox="0 0 64 64">
  <defs>
    <linearGradient id="bg" x1="0" x2="1" y1="0" y2="1">
      <stop offset="0" stop-color="#22c55e" />
      <stop offset="1" stop-color="#0f172a" />
    </linearGradient>
  </defs>
  <rect x="4" y="4" width="56" height="56" rx="16" fill="url(#bg)" />
  <!-- Sagoma semplificata di due ballerini stilizzati -->
  <path
    d="M24 44c-2.5-5.5-1-10 1.5-13.5L22 30c-2-2-2-5.5 0-7.5 2-2 5.5-2 7.5 0l3 3 3-3c2-2 5.5-2 7.5 0 2 2 2 5.5 0 7.5l-3.5 3.5C41 38 42.5 42.5 40 48c-0.6 1.3-2 2-3.4 1.7-1.4-0.3-2.4-1.5-2.6-2.9L33.5 41 31 46.8c-0.6 1.4-2 2.3-3.5 2.1-1.5-0.2-2.7-1.2-3.1-2.9Z"
    fill="#e5e7eb"
  />
</svg>

